<svg width="292" height="116" viewBox="0 0 292 116" fill="none" xmlns="http://www.w3.org/2000/svg">
<path d="M47.33 28.7236C34.3717 6.1663 18.3717 5.84338 4.29358 5.84338H0.293579V114.317H35.1738V111.276C35.1738 73.0413 8.9342 90.7965 4.77275 24.5621L34.6946 77.1976C49.7311 103.599 81.8873 89.0413 81.8873 114.317H85.8873V5.84338H51.0123V8.88505C51.0123 46.3226 75.8092 30.9632 80.929 90.7965C78.8509 85.8382 75.9707 80.4007 72.2884 73.5205C65.5696 61.0413 55.653 43.6038 47.33 28.7236Z" fill="white" fill-opacity="0.2784"/>
<path d="M142.041 4.88507C112.124 4.88507 87.8063 29.5205 87.8063 60.083C87.8063 90.6403 112.124 115.437 142.041 115.437C172.119 115.437 196.28 90.6403 196.28 60.083C196.28 29.5205 172.119 4.88507 142.041 4.88507ZM169.082 103.599C159.963 109.198 140.28 94.4788 125.405 70.4788C110.525 46.484 105.884 22.484 115.004 16.7236C124.286 10.9632 143.801 25.8434 158.681 49.8434C173.723 73.6819 178.202 97.8382 169.082 103.599Z" fill="white" fill-opacity="0.2784"/>
<path d="M235.793 115.437C265.709 115.437 290.027 90.6403 290.027 60.083C290.027 29.5205 265.709 4.72363 235.793 4.72363C219.793 4.72363 198.037 11.9215 198.037 39.4424V114.317H224.751C228.116 114.958 232.272 115.437 235.793 115.437ZM217.392 16.083C226.511 18.6455 241.23 31.9216 252.433 49.8434C267.308 73.682 271.949 97.8382 262.673 103.599C256.11 107.599 244.433 101.359 233.074 89.0413V53.8434C233.074 33.2028 213.715 34.1611 209.876 24.7236C208.272 20.7236 209.235 13.8434 217.392 16.083Z" fill="white" fill-opacity="0.2784"/>
<path d="M49.274 24.5548C36.3157 1.99748 20.3157 1.67456 6.23755 1.67456H2.23755V110.149H37.1178V107.107C37.1178 68.8725 10.8782 86.6277 6.71672 20.3933L36.6386 73.0287C51.675 99.4298 83.8313 84.8725 83.8313 110.149H87.8313V1.67456H52.9563V4.71623C52.9563 42.1537 77.7532 26.7944 82.873 86.6277C80.7948 81.6694 77.9146 76.2319 74.2323 69.3516C67.5136 56.8725 57.5969 39.435 49.274 24.5548Z" fill="#3B5700"/>
<path d="M143.985 0.716248C114.068 0.716248 89.7503 25.3517 89.7503 55.9142C89.7503 86.4715 114.068 111.268 143.985 111.268C174.063 111.268 198.224 86.4715 198.224 55.9142C198.224 25.3517 174.063 0.716248 143.985 0.716248ZM171.026 99.4298C161.907 105.029 142.224 90.31 127.349 66.31C112.469 42.3152 107.828 18.3152 116.948 12.5548C126.229 6.79437 145.745 21.6746 160.625 45.6746C175.667 69.5131 180.146 93.6694 171.026 99.4298Z" fill="#3B5700"/>
<path d="M237.737 111.268C267.653 111.268 291.971 86.4715 291.971 55.9142C291.971 25.3517 267.653 0.55481 237.737 0.55481C221.737 0.55481 199.981 7.75273 199.981 35.2736V110.149H226.695C230.06 110.789 234.216 111.268 237.737 111.268ZM219.336 11.9142C228.455 14.4767 243.174 27.7527 254.377 45.6746C269.252 69.5131 273.893 93.6694 264.617 99.4298C258.054 103.43 246.377 97.1902 235.018 84.8725V49.6746C235.018 29.034 215.658 29.9923 211.82 20.5548C210.216 16.5548 211.179 9.6746 219.336 11.9142Z" fill="#3B5700"/>
</svg>
